# Blender v2.81 (sub 16) OBJ File: ''
# www.blender.org
mtllib col_000070.mtl
o polygon0
v -0.002627 0.041362 0.042109
v -0.015703 0.040254 0.041025
v -0.013896 0.041655 0.037085
v -0.024287 0.047759 0.034438
v -0.012583 0.041333 0.033110
v -0.030068 0.053965 0.024502
v -0.014248 0.034238 0.031885
v -0.032080 0.049434 0.020273
v -0.016636 0.026133 0.031875
v -0.036523 0.043677 0.017515
v -0.017920 0.014478 0.025776
v -0.039082 0.030601 0.006450
v -0.016509 0.005415 0.014229
v -0.035928 0.020327 -0.003647
v -0.012485 0.001655 -0.000264
v -0.026953 0.013120 -0.014009
v -0.006470 0.003770 -0.015498
v -0.015225 0.009854 -0.022793
v 0.000625 0.011436 -0.029146
v 0.038223 0.048496 0.030493
v 0.033994 0.048428 0.028179
v 0.037773 0.058643 0.020879
v 0.030928 0.046963 0.025327
v 0.033887 0.065801 0.009658
v 0.032002 0.043228 0.022896
v 0.033950 0.064854 0.003965
v 0.036528 0.038472 0.021689
v 0.037471 0.062886 -0.000508
v 0.039526 0.027246 0.013926
v 0.039365 0.050220 -0.013613
v 0.036226 0.016450 0.003159
v 0.036074 0.037676 -0.022285
v 0.026826 0.009023 -0.008042
v 0.026709 0.025269 -0.027515
v 0.012754 0.006104 -0.017974
v 0.012690 0.014893 -0.028511
v -0.002314 0.010742 -0.028247
v 0.001841 0.002373 -0.013501
v 0.007720 -0.000000 0.002773
v 0.011650 0.003887 0.018213
v 0.013027 0.013442 0.030469
v 0.013042 0.029102 0.039990
v 0.012241 0.035327 0.039355
v 0.014897 0.040532 0.039946
v 0.026919 0.046123 0.035889
v 0.037476 0.026558 0.008799
v 0.034731 0.037266 0.016084
v 0.038672 0.046035 -0.014551
v 0.035830 0.055264 -0.005488
v 0.018013 0.060352 -0.031709
v 0.016743 0.068486 -0.021338
v -0.012397 0.061113 -0.032622
v -0.011348 0.069194 -0.022187
v -0.034741 0.047881 -0.016763
v -0.031992 0.056968 -0.007529
v -0.035933 0.028403 0.006587
v -0.033096 0.038970 0.014043
v -0.015278 0.014087 0.023745
v -0.014009 0.025747 0.029893
v 0.015132 0.013320 0.024663
v 0.014087 0.025039 0.030742
v 0.026899 0.047969 0.020313
v 0.027744 0.061743 0.003804
v 0.013140 0.071865 -0.008330
v -0.008364 0.072402 -0.008979
v -0.024165 0.063047 0.002241
v -0.025010 0.049272 0.018750
v -0.010400 0.039150 0.030884
v 0.011099 0.038608 0.031533
v 0.015186 0.057031 0.020845
v 0.015645 0.064487 0.011909
v 0.007739 0.069966 0.005342
v -0.003901 0.070259 0.004995
v -0.012451 0.065195 0.011064
v -0.012905 0.057739 0.020000
v -0.005000 0.052261 0.026567
v 0.006636 0.051968 0.026914
v -0.000928 0.024487 -0.040361
v 0.005625 0.011689 -0.029736
v -0.010586 0.018242 -0.032876
v -0.010522 0.009453 -0.022339
v -0.024653 0.028535 -0.031782
v -0.024541 0.012295 -0.012310
v -0.034058 0.040889 -0.026484
v -0.033906 0.019663 -0.001045
v -0.037358 0.053418 -0.017793
v -0.037197 0.030444 0.009746
v -0.034355 0.063071 -0.008140
v -0.035303 0.045605 0.019854
v -0.035630 0.070195 -0.002871
v -0.038589 0.058159 0.018472
v -0.038691 0.073267 -0.001943
v -0.042471 0.067915 0.009419
v -0.042925 0.075552 -0.002290
v 0.023008 0.085938 -0.018853
v 0.032163 0.080635 -0.010088
v 0.021196 0.082310 -0.016768
v 0.036362 0.071860 -0.002065
v 0.019888 0.078345 -0.016377
v 0.040254 0.060034 -0.000801
v 0.019346 0.071172 -0.020830
v 0.042925 0.046768 -0.011641
v 0.020625 0.063086 -0.031196
v 0.039658 0.035024 -0.019980
v 0.019214 0.050098 -0.038047
v 0.032427 0.023604 -0.025293
v 0.015195 0.035166 -0.039146
v 0.018506 0.014302 -0.026836
v 0.009180 0.020557 -0.034336
v 0.002319 0.008828 -0.024731
v -0.004302 0.021040 -0.034912
v 0.009355 0.087373 -0.018164
v -0.003711 0.084272 -0.016943
v -0.012739 0.076260 -0.020254
v -0.014604 0.064336 -0.032700
v -0.013335 0.051255 -0.039434
v -0.009717 0.036050 -0.040210
v 0.009951 0.042148 0.038667
v 0.012368 0.035591 0.036870
v 0.014062 0.028018 0.036284
v 0.015811 0.013672 0.026748
v 0.014658 0.004668 0.015122
v 0.011362 0.001084 0.000420
v 0.006436 0.003457 -0.015127
v -0.006982 0.037148 -0.042109
v -0.010913 0.053037 -0.041050
v -0.012290 0.066807 -0.033848
v -0.012305 0.078979 -0.020151
v -0.020850 0.085938 -0.014829
v -0.032871 0.082949 -0.008604
v -0.011162 0.054019 0.024766
v -0.011162 0.060073 0.019351
v -0.010024 0.053662 0.025254
v -0.010024 0.060664 0.019009
v -0.008882 0.053550 0.025503
v -0.008882 0.060942 0.018945
v -0.004399 0.053848 0.025952
v -0.004399 0.061240 0.019399
v -0.003296 0.054116 0.025933
v -0.003296 0.061113 0.019683
v -0.002192 0.060674 0.020249
v 0.006670 0.053486 0.025806
v 0.006670 0.061025 0.019473
v 0.011187 0.053247 0.025449
v 0.011187 0.060786 0.019111
v 0.012319 0.060518 0.019189
v 0.012319 0.053379 0.025229
v 0.013447 0.059937 0.019546
v 0.013447 0.053760 0.024775
v 0.001367 0.063081 0.017598
v 0.004419 0.060415 0.020259
v 0.005547 0.060879 0.019727
v 0.004419 0.054238 0.025488
v 0.005547 0.053740 0.025767
v -0.002192 0.054619 0.025664
vt 0.231354 0.946625
vt 0.231354 0.981903
vt 0.342957 0.957031
vt 0.134552 0.957031
vt 0.231354 0.912842
vt 0.075775 0.912842
vt 0.231354 0.868622
vt 0.048126 0.868622
vt 0.231354 0.825409
vt 0.031586 0.825409
vt 0.231354 0.746948
vt 0.020660 0.746948
vt 0.231354 0.661194
vt 0.029022 0.661194
vt 0.231354 0.558136
vt 0.067078 0.558136
vt 0.231354 0.476288
vt 0.130920 0.476288
vt 0.231354 0.397369
vt 0.342957 0.957031
vt 0.231354 0.946625
vt 0.231354 0.981903
vt 0.231354 0.912842
vt 0.428284 0.912842
vt 0.231354 0.868622
vt 0.448120 0.868622
vt 0.231354 0.825409
vt 0.465179 0.825409
vt 0.231354 0.746948
vt 0.471588 0.746948
vt 0.231354 0.661194
vt 0.448059 0.661194
vt 0.231354 0.558136
vt 0.403229 0.558136
vt 0.231354 0.476288
vt 0.329071 0.476288
vt 0.231354 0.397369
vt 0.130920 0.476288
vt 0.067078 0.558136
vt 0.029022 0.661194
vt 0.020660 0.746948
vt 0.031586 0.825409
vt 0.048126 0.868622
vt 0.075775 0.912842
vt 0.134552 0.957031
vt 0.973083 0.469330
vt 0.914429 0.240479
vt 0.973114 0.211121
vt 0.914398 0.450561
vt 0.789734 0.652008
vt 0.765228 0.599182
vt 0.530456 0.652008
vt 0.554291 0.599182
vt 0.347138 0.469330
vt 0.405151 0.450561
vt 0.347168 0.211121
vt 0.405182 0.240479
vt 0.530548 0.028625
vt 0.554352 0.091980
vt 0.789795 0.028717
vt 0.765289 0.091980
vt 0.843506 0.272675
vt 0.843475 0.424469
vt 0.735718 0.531830
vt 0.583313 0.531830
vt 0.475555 0.424469
vt 0.475586 0.272675
vt 0.583374 0.165405
vt 0.735748 0.165405
vt 0.757477 0.312500
vt 0.757446 0.393463
vt 0.699982 0.450714
vt 0.618713 0.450714
vt 0.561249 0.393463
vt 0.561249 0.312500
vt 0.618744 0.255310
vt 0.700012 0.255310
vt 0.231354 0.476288
vt 0.231354 0.397369
vt 0.329071 0.476288
vt 0.130920 0.476288
vt 0.231354 0.558136
vt 0.067078 0.558136
vt 0.231354 0.661194
vt 0.029022 0.661194
vt 0.231354 0.746948
vt 0.020660 0.746948
vt 0.231354 0.825409
vt 0.031586 0.825409
vt 0.231354 0.912842
vt 0.075775 0.912842
vt 0.231354 0.946625
vt 0.134552 0.957031
vt 0.231354 0.981903
vt 0.231354 0.946625
vt 0.342957 0.957031
vt 0.231354 0.981903
vt 0.428284 0.912842
vt 0.231354 0.912842
vt 0.465179 0.825409
vt 0.231354 0.825409
vt 0.471588 0.746948
vt 0.231354 0.746948
vt 0.448059 0.661194
vt 0.231354 0.661194
vt 0.403229 0.558136
vt 0.231354 0.558136
vt 0.329071 0.476288
vt 0.231354 0.476288
vt 0.231354 0.397369
vt 0.130920 0.476288
vt 0.134552 0.957031
vt 0.075775 0.912842
vt 0.031586 0.825409
vt 0.020660 0.746948
vt 0.029022 0.661194
vt 0.067078 0.558136
vt 0.428284 0.912842
vt 0.448120 0.868622
vt 0.465179 0.825409
vt 0.471588 0.746948
vt 0.448059 0.661194
vt 0.403229 0.558136
vt 0.329071 0.476288
vt 0.403229 0.558136
vt 0.448059 0.661194
vt 0.471588 0.746948
vt 0.465179 0.825409
vt 0.428284 0.912842
vt 0.342957 0.957031
vt 0.104797 0.037262
vt 0.076996 0.323059
vt 0.076996 0.056122
vt 0.104797 0.345703
vt 0.132538 0.029510
vt 0.132538 0.354492
vt 0.241882 0.029510
vt 0.241882 0.354492
vt 0.268829 0.037262
vt 0.268829 0.345703
vt 0.295654 0.323059
vt 0.132538 0.029510
vt 0.241882 0.354492
vt 0.241882 0.029510
vt 0.132538 0.354492
vt 0.104797 0.345703
vt 0.104797 0.037262
vt 0.076996 0.323059
vt 0.076996 0.056122
vt 0.659302 0.354614
vt 0.295654 0.056122
vt 0.268829 0.345703
vt 0.295654 0.323059
vt 0.268829 0.037262
vt 0.295654 0.056122
vn -0.1047 0.9512 0.2903
vn 0.3619 0.8135 0.4552
vn 0.4872 0.8686 0.0906
vn 0.4880 0.8392 0.2402
vn 0.4662 0.0432 -0.8836
vn 0.6890 0.3068 -0.6566
vn 0.4581 -0.1339 -0.8788
vn 0.5625 -0.0384 -0.8259
vn 0.7072 0.2651 -0.6555
vn 0.7608 0.3260 -0.5612
vn 0.7487 0.5629 -0.3502
vn 0.7498 0.5664 -0.3420
vn 0.6253 0.7799 -0.0287
vn 0.6234 0.7819 -0.0039
vn 0.4152 0.8643 0.2839
vn 0.4179 0.8786 0.2312
vn 0.1319 0.8334 0.5367
vn -0.3819 0.6267 0.6792
vn -0.6880 0.5729 0.4455
vn -0.5971 0.5663 0.5681
vn -0.9541 -0.0881 -0.2861
vn -0.9973 0.0699 -0.0228
vn -0.6500 -0.4665 -0.5999
vn -0.7997 -0.3867 -0.4593
vn -0.9737 -0.1315 -0.1859
vn -0.9945 -0.0831 -0.0635
vn -0.9773 0.1600 0.1392
vn -0.9772 0.1601 0.1393
vn -0.8083 0.4498 0.3800
vn -0.8082 0.4498 0.3801
vn -0.5224 0.6532 0.5481
vn -0.5224 0.6532 0.5480
vn -0.1970 0.7523 0.6287
vn -0.0838 0.8563 0.5096
vn -0.2789 0.9534 0.1148
vn -0.2987 0.9230 0.2425
vn -0.4922 0.8566 -0.1549
vn -0.4968 0.8631 -0.0908
vn -0.6110 0.6448 -0.4593
vn -0.6155 0.6536 -0.4405
vn -0.6175 0.3292 -0.7144
vn -0.6577 0.3918 -0.6434
vn -0.5155 -0.2857 -0.8079
vn -0.5943 -0.1569 -0.7888
vn -0.6770 0.2548 -0.6905
vn -0.6975 0.4217 -0.5793
vn -0.4017 0.9150 -0.0380
vn -0.4605 0.8728 -0.1617
vn -0.1168 0.9759 0.1845
vn 0.9766 0.1379 0.1651
vn 0.9765 0.1384 0.1652
vn 0.7176 0.5878 -0.3736
vn 0.7175 0.5880 -0.3734
vn 0.0382 0.7885 -0.6138
vn 0.0384 0.7882 -0.6143
vn -0.6634 0.6224 -0.4153
vn -0.6634 0.6225 -0.4151
vn -0.9765 0.1873 0.1064
vn -0.9766 0.1872 0.1062
vn -0.7177 -0.2624 0.6450
vn -0.7175 -0.2621 0.6454
vn -0.0384 -0.4628 0.8857
vn -0.0384 -0.4628 0.8856
vn 0.6635 -0.2970 0.6867
vn 0.6635 -0.2971 0.6866
vn 0.8074 0.4321 0.4017
vn 0.8076 0.4318 0.4016
vn 0.5934 0.8037 -0.0441
vn 0.5937 0.8035 -0.0443
vn 0.0318 0.9695 -0.2430
vn 0.0315 0.9696 -0.2426
vn -0.5486 0.8324 -0.0783
vn -0.5486 0.8324 -0.0785
vn -0.8076 0.4725 0.3529
vn -0.8075 0.4725 0.3530
vn -0.5933 0.1008 0.7986
vn -0.5935 0.1007 0.7985
vn -0.0318 -0.0652 0.9974
vn -0.0318 -0.0651 0.9974
vn 0.5486 0.0723 0.8329
vn 0.5486 0.0724 0.8329
vn 0.5219 0.6416 0.5621
vn 0.5220 0.6415 0.5621
vn 0.3836 0.8819 0.2740
vn 0.3835 0.8819 0.2740
vn 0.0203 0.9892 0.1454
vn 0.0206 0.9892 0.1452
vn -0.3547 0.9006 0.2514
vn -0.3547 0.9005 0.2516
vn -0.5221 0.6678 0.5305
vn -0.5219 0.6678 0.5307
vn -0.3836 0.4276 0.8186
vn -0.3837 0.4275 0.8185
vn -0.0205 0.3203 0.9471
vn -0.0201 0.3207 0.9470
vn 0.3546 0.4092 0.8407
vn 0.3546 0.4090 0.8408
vn 0.1304 0.6720 0.7290
vn 0.1835 0.7554 0.6290
vn 0.5225 0.6563 0.5443
vn 0.8081 0.4546 0.3745
vn 0.9773 0.1656 0.1324
vn 0.9772 0.1657 0.1325
vn 0.9765 -0.1625 -0.1413
vn 0.9941 -0.1036 -0.0310
vn 0.9897 0.1042 0.0985
vn 0.9204 0.2719 0.2809
vn 0.7028 0.5735 0.4209
vn 0.5401 0.6778 0.4989
vn 0.3811 0.7811 0.4946
vn -0.3513 0.5922 0.7252
vn -0.3875 0.5141 0.7652
vn -0.5708 0.2650 0.7771
vn -0.6811 -0.1474 0.7172
vn -0.7387 -0.3144 0.5963
vn -0.7187 -0.5210 0.4605
vn -0.7352 -0.5755 0.3582
vn -0.7344 -0.2452 0.6329
vn -0.7381 -0.2503 0.6265
vn -0.6407 0.0493 0.7662
vn -0.5830 0.0976 0.8066
vn -0.3758 0.4259 0.8230
vn -0.3762 0.4258 0.8229
vn -0.1332 0.6734 0.7272
vn -0.0101 0.6371 0.7707
vn 0.0930 0.4608 0.8826
vn -0.0658 0.1193 0.9907
vn 0.0354 0.2336 0.9717
vn -0.1492 -0.5134 0.8451
vn -0.0378 -0.3449 0.9379
vn -0.1145 -0.7901 0.6022
vn -0.0551 -0.7169 0.6950
vn -0.0542 -0.4612 0.8856
vn -0.0541 -0.4611 0.8857
vn -0.0447 -0.0613 0.9971
vn -0.0448 -0.0616 0.9971
vn -0.0289 0.3233 0.9459
vn -0.0288 0.3234 0.9458
vn -0.0286 0.9921 0.1220
vn -0.0149 0.9962 -0.0857
vn 0.2146 0.3309 -0.9189
vn 0.1764 0.1272 -0.9761
vn 0.1772 0.1153 -0.9774
vn 0.1445 -0.0414 -0.9886
vn 0.0842 0.5587 -0.8251
vn 0.0365 0.4601 -0.8871
vn 0.0365 0.7883 -0.6142
vn 0.0302 0.9695 -0.2431
vn 0.0195 0.9893 0.1448
vn 0.4387 0.3255 0.8376
vn 0.3325 0.3619 0.8709
vn 0.4814 0.0608 0.8744
vn 0.5208 0.0306 0.8531
vn 0.6184 -0.3148 0.7201
vn 0.6271 -0.3256 0.7076
vn 0.6363 -0.5763 0.5129
vn 0.6699 -0.6187 0.4103
vn 0.5022 -0.0439 0.8637
vn 0.7682 -0.2862 0.5727
vn 0.3748 0.3114 0.8732
vn -0.1104 0.6626 0.7408
vn -0.1206 0.6608 0.7408
vn -0.0968 0.6625 0.7428
vn -0.1192 0.6589 0.7428
vn -0.1182 0.6589 0.7428
vn -0.1190 0.6586 0.7430
vn -0.1466 0.6562 0.7403
vn -0.1140 0.6618 0.7409
vn -0.1167 0.6616 0.7407
vn 0.0941 0.6404 0.7623
vn 0.0949 0.6406 0.7620
vn 0.0993 0.6403 0.7617
vn 0.0727 0.6442 0.7614
vn 0.0911 0.6432 0.7602
vn 0.0887 0.6436 0.7602
vn 0.1793 0.7508 0.6357
vn 0.1219 0.6709 0.7314
vn -0.0068 0.6405 0.7679
vn -0.1317 0.6774 0.7237
vn -0.1792 0.7598 0.6249
vn -0.1217 0.8398 0.5292
vn 0.0940 0.6433 0.7598
vn 0.0964 0.6429 0.7599
vn 0.0880 0.6434 0.7604
vn 0.1180 0.6387 0.7603
vn 0.1875 0.4776 0.8583
vn 0.5087 0.2590 0.8211
vn 0.0069 0.8703 0.4925
vn 0.0198 0.9892 0.1451
vn 0.0072 0.8702 0.4926
vn 0.1317 0.8334 0.5367
vn -0.1215 0.6617 0.7399
g polygon0_polygon0_ItmVegetable06_kyabetu
usemtl ItmVegetable06_kyabetu
s off
f 3/1/1 2/2/1 1/3/1
f 4/4/2 2/2/2 3/1/2
f 5/5/3 4/4/3 3/1/3
f 6/6/4 4/4/4 5/5/4
f 7/7/5 6/6/5 5/5/5
f 8/8/6 6/6/6 7/7/6
f 9/9/7 8/8/7 7/7/7
f 10/10/8 8/8/8 9/9/8
f 11/11/9 10/10/9 9/9/9
f 12/12/10 10/10/10 11/11/10
f 13/13/11 12/12/11 11/11/11
f 14/14/12 12/12/12 13/13/12
f 15/15/13 14/14/13 13/13/13
f 16/16/14 14/14/14 15/15/14
f 17/17/15 16/16/15 15/15/15
f 18/18/16 16/16/16 17/17/16
f 19/19/17 18/18/17 17/17/17
f 22/20/18 21/21/18 20/22/18
f 23/23/19 21/21/19 22/20/19
f 24/24/20 23/23/20 22/20/20
f 25/25/21 23/23/21 24/24/21
f 26/26/22 25/25/22 24/24/22
f 27/27/23 25/25/23 26/26/23
f 28/28/24 27/27/24 26/26/24
f 29/29/25 27/27/25 28/28/25
f 30/30/26 29/29/26 28/28/26
f 31/31/27 29/29/27 30/30/27
f 32/32/28 31/31/28 30/30/28
f 33/33/29 31/31/29 32/32/29
f 34/34/30 33/33/30 32/32/30
f 35/35/31 33/33/31 34/34/31
f 36/36/32 35/35/32 34/34/32
f 37/37/33 35/35/33 36/36/33
f 38/38/34 35/35/34 37/37/34
f 33/33/35 35/35/35 38/38/35
f 39/39/36 33/33/36 38/38/36
f 31/31/37 33/33/37 39/39/37
f 40/40/38 31/31/38 39/39/38
f 29/29/39 31/31/39 40/40/39
f 41/41/40 29/29/40 40/40/40
f 27/27/41 29/29/41 41/41/41
f 42/42/42 27/27/42 41/41/42
f 25/25/43 27/27/43 42/42/43
f 43/43/44 25/25/44 42/42/44
f 23/23/45 25/25/45 43/43/45
f 44/44/46 23/23/46 43/43/46
f 21/21/47 23/23/47 44/44/47
f 45/45/48 21/21/48 44/44/48
f 20/22/49 21/21/49 45/45/49
f 48/46/50 47/47/50 46/48/50
f 49/49/51 47/47/51 48/46/51
f 50/50/52 49/49/52 48/46/52
f 51/51/53 49/49/53 50/50/53
f 52/52/54 51/51/54 50/50/54
f 53/53/55 51/51/55 52/52/55
f 54/54/56 53/53/56 52/52/56
f 55/55/57 53/53/57 54/54/57
f 56/56/58 55/55/58 54/54/58
f 57/57/59 55/55/59 56/56/59
f 58/58/60 57/57/60 56/56/60
f 59/59/61 57/57/61 58/58/61
f 60/60/62 59/59/62 58/58/62
f 61/61/63 59/59/63 60/60/63
f 46/48/64 61/61/64 60/60/64
f 47/47/65 61/61/65 46/48/65
f 49/49/66 62/62/66 47/47/66
f 63/63/67 62/62/67 49/49/67
f 51/51/68 63/63/68 49/49/68
f 64/64/69 63/63/69 51/51/69
f 53/53/70 64/64/70 51/51/70
f 65/65/71 64/64/71 53/53/71
f 55/55/72 65/65/72 53/53/72
f 66/66/73 65/65/73 55/55/73
f 57/57/74 66/66/74 55/55/74
f 67/67/75 66/66/75 57/57/75
f 59/59/76 67/67/76 57/57/76
f 68/68/77 67/67/77 59/59/77
f 61/61/78 68/68/78 59/59/78
f 69/69/79 68/68/79 61/61/79
f 47/47/80 69/69/80 61/61/80
f 62/62/81 69/69/81 47/47/81
f 63/63/82 70/70/82 62/62/82
f 71/71/83 70/70/83 63/63/83
f 64/64/84 71/71/84 63/63/84
f 72/72/85 71/71/85 64/64/85
f 65/65/86 72/72/86 64/64/86
f 73/73/87 72/72/87 65/65/87
f 66/66/88 73/73/88 65/65/88
f 74/74/89 73/73/89 66/66/89
f 67/67/90 74/74/90 66/66/90
f 75/75/91 74/74/91 67/67/91
f 68/68/92 75/75/92 67/67/92
f 76/76/93 75/75/93 68/68/93
f 69/69/94 76/76/94 68/68/94
f 77/77/95 76/76/95 69/69/95
f 62/62/96 77/77/96 69/69/96
f 70/70/97 77/77/97 62/62/97
f 80/78/98 79/79/98 78/80/98
f 81/81/99 79/79/99 80/78/99
f 82/82/100 81/81/100 80/78/100
f 83/83/100 81/81/100 82/82/100
f 84/84/101 83/83/101 82/82/101
f 85/85/101 83/83/101 84/84/101
f 86/86/102 85/85/102 84/84/102
f 87/87/103 85/85/103 86/86/103
f 88/88/104 87/87/104 86/86/104
f 89/89/105 87/87/105 88/88/105
f 90/90/106 89/89/106 88/88/106
f 91/91/107 89/89/107 90/90/107
f 92/92/108 91/91/108 90/90/108
f 93/93/109 91/91/109 92/92/109
f 94/94/110 93/93/110 92/92/110
f 97/95/111 96/96/111 95/97/111
f 98/98/112 96/96/112 97/95/112
f 99/99/113 98/98/113 97/95/113
f 100/100/114 98/98/114 99/99/114
f 101/101/115 100/100/115 99/99/115
f 102/102/116 100/100/116 101/101/116
f 103/103/117 102/102/117 101/101/117
f 104/104/118 102/102/118 103/103/118
f 105/105/119 104/104/119 103/103/119
f 106/106/120 104/104/120 105/105/120
f 107/107/121 106/106/121 105/105/121
f 108/108/122 106/106/122 107/107/122
f 109/109/123 108/108/123 107/107/123
f 110/110/124 108/108/124 109/109/124
f 111/111/125 110/110/125 109/109/125
f 112/112/126 97/95/126 95/97/126
f 99/99/127 97/95/127 112/112/127
f 113/113/128 99/99/128 112/112/128
f 101/101/129 99/99/129 113/113/129
f 114/114/130 101/101/130 113/113/130
f 103/103/131 101/101/131 114/114/131
f 115/115/132 103/103/132 114/114/132
f 105/105/133 103/103/133 115/115/133
f 116/116/134 105/105/134 115/115/134
f 107/107/135 105/105/135 116/116/135
f 117/117/136 107/107/136 116/116/136
f 109/109/137 107/107/137 117/117/137
f 111/111/138 109/109/138 117/117/138
f 118/118/139 3/1/139 1/3/139
f 5/5/140 3/1/140 118/118/140
f 119/119/141 5/5/141 118/118/141
f 7/7/142 5/5/142 119/119/142
f 120/120/143 7/7/143 119/119/143
f 9/9/144 7/7/144 120/120/144
f 121/121/145 9/9/145 120/120/145
f 11/11/146 9/9/146 121/121/146
f 122/122/147 11/11/147 121/121/147
f 13/13/147 11/11/147 122/122/147
f 123/123/148 13/13/148 122/122/148
f 15/15/148 13/13/148 123/123/148
f 124/124/149 15/15/149 123/123/149
f 125/125/150 80/78/150 78/80/150
f 82/82/151 80/78/151 125/125/151
f 126/126/152 82/82/152 125/125/152
f 84/84/153 82/82/153 126/126/153
f 127/127/154 84/84/154 126/126/154
f 86/86/155 84/84/155 127/127/155
f 128/128/156 86/86/156 127/127/156
f 88/88/157 86/86/157 128/128/157
f 129/129/158 88/88/158 128/128/158
f 90/90/159 88/88/159 129/129/159
f 130/130/160 90/90/160 129/129/160
f 133/131/161 132/132/161 131/133/161
f 134/134/162 132/132/162 133/131/162
f 135/135/163 134/134/163 133/131/163
f 136/136/164 134/134/164 135/135/164
f 137/137/165 136/136/165 135/135/165
f 138/138/166 136/136/166 137/137/166
f 139/139/167 138/138/167 137/137/167
f 140/140/168 138/138/168 139/139/168
f 141/141/169 140/140/169 139/139/169
f 144/142/170 143/143/170 142/144/170
f 145/145/171 143/143/171 144/142/171
f 146/146/172 145/145/172 144/142/172
f 147/147/173 146/146/173 144/142/173
f 148/148/174 146/146/174 147/147/174
f 149/149/175 148/148/175 147/147/175
f 150/150/176 70/70/176 71/71/176
f 77/77/177 70/70/177 150/150/177
f 76/76/178 77/77/178 150/150/178
f 150/150/179 75/75/179 76/76/179
f 74/74/180 75/75/180 150/150/180
f 73/73/181 74/74/181 150/150/181
f 153/151/182 152/152/182 151/153/182
f 154/154/183 152/152/183 153/151/183
f 154/154/184 143/143/184 152/152/184
f 142/144/185 143/143/185 154/154/185
f 92/92/186 130/130/186 94/94/186
f 90/90/187 130/130/187 92/92/187
f 17/17/188 124/124/188 19/19/188
f 15/15/189 124/124/189 17/17/189
f 150/150/190 72/72/190 73/73/190
f 71/71/191 72/72/191 150/150/191
f 155/155/192 141/141/192 139/139/192
